{"title":"The.Possession.2012.TS.XViD.AC3.SeeN-CM8","uid":7628413,"size":875939890,"categoryP":"video","categoryS":"movies","magnet":"?xt=urn:btih:b6d6bf0c8058711f254bbf0ab34808971a4b741a&amp;dn=+The.Possession.2012.TS.XViD.AC3.SeeN-CM8&amp;tr=udp%3A%2F%2Ftracker.openbittorrent.com%3A80&amp;tr=udp%3A%2F%2Fopen.demonii.com%3A1337&amp;tr=udp%3A%2F%2Ftracker.coppersurfer.tk%3A6969&amp;tr=udp%3A%2F%2Fexodus.desync.com%3A6969","seeders":0,"leechers":0,"uploader":"KlixXxo","files":-1,"time":1347475941,"description":"The.Possession.2012.TS.XViD.AC3.SeeN-CM8\n\nRating \t6.2 / 10        3,375 people voted\n\nReleased\t2012\n\nGenre\tHorror, Thriller\n\nActors\tNatasha Calis, Jeffrey Dean Morgan, Kyra Sedgwick\n\nPlot\tA young girl buys an antique box at a yard sale, unaware that inside the collectible lives a malicious ancient spirit. The girl's father teams with his \nex-wife to find a way to end the curse upon their child.\n\nIMDB link\thttp://www.imdb.com/title/tt0431021/\n\nUpdated \t\n08.09.2012 15:18 UTC\n\nThx SeeN\n\n****Please read notes*****\n\nSources Video: Cam .mp4 - Thx\nSources Audio: LiNe  - DrunkenNinja , Thx , cheers bro, awesome as usual\n\nVideo: 656x304 @1200Kbps 2pass\nAudio: English AC3 2.0 @ 128Kbps\nSubtitles : None\nSample: Yes, included\n\nComplete name                            :\n\nThe.Possession.2012.TS.XViD.AC3.SeeN-CM8.avi\nFormat                                   : AVI\nFormat/Info                              : Audio Video Interleave\nFile size                                : 827 MiB\nDuration                                 : 1h 26mn\nOverall bit rate                         : 1 335 Kbps\nWriting library                          : VirtualDub build 34807/release\n\nVideo\nID                                       : 0\nFormat                                   : MPEG-4 Visual\nFormat profile                           : Advanced Simple@L5\nMuxing mode                              : Packed bitstream\nCodec ID                                 : XVID\nDuration                                 : 1h 26mn\nBit rate                                 : 1 194 Kbps\nWidth                                    : 656 pixels\nHeight                                   : 304 pixels\nDisplay aspect ratio                     : 2.2:1\nFrame rate                               : 30.000 fps\nScan type                                : Progressive\nStream size                              : 740 MiB (90%)\nWriting library                          : XviD 64\n\nAudio\nID                                       : 1\nFormat                                   : AC-3\nBit rate                                 : 128 Kbps\nChannel(s)                               : 2 channels\nChannel positions                        : Front: L R\nSampling rate                            : 48.0 KHz\nStream size                              : 79.3 MiB (10%)\n\nPreview:\n &lt;a href=&quot;\nhttp://www.tinypix.me/viewer.php?file=l0ad939ya7.jpeg&quot; rel=&quot;nofollow&quot; target=&quot;_NEW&quot;&gt;\nhttp://www.tinypix.me/viewer.php?file=l0ad939ya7.jpeg&lt;/a&gt; &lt;a href=&quot;\nhttp://www.tinypix.me/viewer.php?file=a1fwgdyzv4.png&quot; rel=&quot;nofollow&quot; target=&quot;_NEW&quot;&gt;\nhttp://www.tinypix.me/viewer.php?file=a1fwgdyzv4.png&lt;/a&gt; &lt;a href=&quot;\nhttp://www.tinypix.me/viewer.php?file=0iyehhw2ue.png&quot; rel=&quot;nofollow&quot; target=&quot;_NEW&quot;&gt;\nhttp://www.tinypix.me/viewer.php?file=0iyehhw2ue.png&lt;/a&gt; &lt;a href=&quot;\nhttp://www.tinypix.me/viewer.php?file=f3nfe8j7fq.jpg&quot; rel=&quot;nofollow&quot; target=&quot;_NEW&quot;&gt;\nhttp://www.tinypix.me/viewer.php?file=f3nfe8j7fq.jpg&lt;/a&gt;\n\nPlot:\nA young girl buys an antique box at a yard sale, unaware that inside the\ncollectible lives a malicious ancient spirit. The girl's father teams with\nhis ex-wife to find a way to end the curse upon their child.\n\nDirector: Ole Bornedal\nWriters: Juliet Snowden, Stiles White\nStars: Natasha Calis, Jeffrey Dean Morgan and Kyra Sedgwick \n\nThank you..","torrent":{"xt":"urn:btih:b6d6bf0c8058711f254bbf0ab34808971a4b741a","amp;dn":"+The.Possession.2012.TS.XViD.AC3.SeeN-CM8","amp;tr":["udp%3A%2F%2Ftracker.openbittorrent.com%3A80","udp%3A%2F%2Fopen.demonii.com%3A1337","udp%3A%2F%2Ftracker.coppersurfer.tk%3A6969","udp%3A%2F%2Fexodus.desync.com%3A6969"],"infoHash":"b6d6bf0c8058711f254bbf0ab34808971a4b741a","infoHashBuffer":{"type":"Buffer","data":[182,214,191,12,128,88,113,31,37,75,191,10,179,72,8,151,26,75,116,26]},"announce":[],"urlList":[]}}